<mxfile host="app.diagrams.net" modified="2023-12-11T08:32:06.469Z" agent="Mozilla/5.0 (Windows NT 10.0; Win64; x64) AppleWebKit/537.36 (KHTML, like Gecko) Chrome/119.0.0.0 Safari/537.36" etag="UDCYNo_3N80-BGpmYy6C" version="22.1.7" type="github">
  <diagram name="Page-1" id="8q3SYaLifR01DfNQJQEg">
    <mxGraphModel dx="1434" dy="782" grid="1" gridSize="10" guides="1" tooltips="1" connect="1" arrows="1" fold="1" page="1" pageScale="1" pageWidth="850" pageHeight="1100" math="0" shadow="0">
      <root>
        <mxCell id="0" />
        <mxCell id="1" parent="0" />
        <mxCell id="y2WVTs9EoRohtQ9s65yp-1" value="" style="rounded=1;whiteSpace=wrap;html=1;fillColor=none;dashed=1;dashPattern=8 8;strokeColor=#66B2FF;" vertex="1" parent="1">
          <mxGeometry x="193" y="270" width="910" height="485" as="geometry" />
        </mxCell>
        <mxCell id="y2WVTs9EoRohtQ9s65yp-2" value="" style="rounded=1;whiteSpace=wrap;html=1;fillColor=none;dashed=1;strokeColor=#007FFF;" vertex="1" parent="1">
          <mxGeometry x="288" y="362" width="216" height="210" as="geometry" />
        </mxCell>
        <mxCell id="y2WVTs9EoRohtQ9s65yp-3" style="rounded=0;orthogonalLoop=1;jettySize=auto;html=1;exitX=0.547;exitY=1.016;exitDx=0;exitDy=0;exitPerimeter=0;" edge="1" parent="1" source="y2WVTs9EoRohtQ9s65yp-6" target="y2WVTs9EoRohtQ9s65yp-19">
          <mxGeometry relative="1" as="geometry" />
        </mxCell>
        <mxCell id="y2WVTs9EoRohtQ9s65yp-4" style="edgeStyle=orthogonalEdgeStyle;rounded=0;orthogonalLoop=1;jettySize=auto;html=1;" edge="1" parent="1" source="y2WVTs9EoRohtQ9s65yp-6" target="y2WVTs9EoRohtQ9s65yp-18">
          <mxGeometry relative="1" as="geometry" />
        </mxCell>
        <mxCell id="y2WVTs9EoRohtQ9s65yp-5" style="rounded=0;orthogonalLoop=1;jettySize=auto;html=1;exitX=0.484;exitY=1.047;exitDx=0;exitDy=0;exitPerimeter=0;" edge="1" parent="1" source="y2WVTs9EoRohtQ9s65yp-6" target="y2WVTs9EoRohtQ9s65yp-17">
          <mxGeometry relative="1" as="geometry" />
        </mxCell>
        <mxCell id="y2WVTs9EoRohtQ9s65yp-6" value="Azure App Services" style="image;aspect=fixed;html=1;points=[];align=center;fontSize=12;image=img/lib/azure2/app_services/App_Services.svg;" vertex="1" parent="1">
          <mxGeometry x="356" y="368" width="64" height="64" as="geometry" />
        </mxCell>
        <mxCell id="y2WVTs9EoRohtQ9s65yp-7" value="Monitoring" style="rounded=1;whiteSpace=wrap;html=1;fillColor=none;dashed=1;strokeColor=#3399FF;arcSize=15;verticalAlign=top;horizontal=1;" vertex="1" parent="1">
          <mxGeometry x="643" y="659" width="188" height="89" as="geometry" />
        </mxCell>
        <mxCell id="y2WVTs9EoRohtQ9s65yp-8" style="edgeStyle=orthogonalEdgeStyle;rounded=0;orthogonalLoop=1;jettySize=auto;html=1;strokeWidth=3;startArrow=classic;startFill=1;entryX=-0.014;entryY=0.462;entryDx=0;entryDy=0;entryPerimeter=0;" edge="1" parent="1" source="y2WVTs9EoRohtQ9s65yp-9" target="y2WVTs9EoRohtQ9s65yp-2">
          <mxGeometry relative="1" as="geometry">
            <mxPoint x="273" y="456" as="targetPoint" />
          </mxGeometry>
        </mxCell>
        <mxCell id="y2WVTs9EoRohtQ9s65yp-9" value="" style="image;aspect=fixed;html=1;points=[];align=center;fontSize=12;image=img/lib/azure2/networking/DNS_Zones.svg;" vertex="1" parent="1">
          <mxGeometry x="168" y="427" width="64" height="64" as="geometry" />
        </mxCell>
        <mxCell id="y2WVTs9EoRohtQ9s65yp-10" value="Azure Monitor" style="image;aspect=fixed;html=1;points=[];align=center;fontSize=12;image=img/lib/azure2/management_governance/Monitor.svg;" vertex="1" parent="1">
          <mxGeometry x="668" y="685" width="36" height="36" as="geometry" />
        </mxCell>
        <mxCell id="y2WVTs9EoRohtQ9s65yp-11" value="user" style="verticalLabelPosition=bottom;html=1;verticalAlign=top;align=center;strokeColor=none;fillColor=#00BEF2;shape=mxgraph.azure.user;" vertex="1" parent="1">
          <mxGeometry x="45" y="431" width="47.5" height="54" as="geometry" />
        </mxCell>
        <mxCell id="y2WVTs9EoRohtQ9s65yp-12" style="edgeStyle=orthogonalEdgeStyle;rounded=0;orthogonalLoop=1;jettySize=auto;html=1;entryX=-0.047;entryY=0.484;entryDx=0;entryDy=0;entryPerimeter=0;strokeWidth=3;startArrow=classic;startFill=1;" edge="1" parent="1" source="y2WVTs9EoRohtQ9s65yp-11" target="y2WVTs9EoRohtQ9s65yp-9">
          <mxGeometry relative="1" as="geometry" />
        </mxCell>
        <mxCell id="y2WVTs9EoRohtQ9s65yp-13" value="Azure Active Directory" style="image;sketch=0;aspect=fixed;html=1;points=[];align=center;fontSize=12;image=img/lib/mscae/Azure_AD_Domain_Services.svg;" vertex="1" parent="1">
          <mxGeometry x="45" y="284" width="50" height="50" as="geometry" />
        </mxCell>
        <mxCell id="y2WVTs9EoRohtQ9s65yp-14" style="edgeStyle=orthogonalEdgeStyle;rounded=0;orthogonalLoop=1;jettySize=auto;html=1;" edge="1" parent="1">
          <mxGeometry relative="1" as="geometry">
            <mxPoint x="70" y="359" as="sourcePoint" />
            <mxPoint x="70" y="428" as="targetPoint" />
          </mxGeometry>
        </mxCell>
        <mxCell id="y2WVTs9EoRohtQ9s65yp-15" style="edgeStyle=orthogonalEdgeStyle;rounded=0;orthogonalLoop=1;jettySize=auto;html=1;" edge="1" parent="1" source="y2WVTs9EoRohtQ9s65yp-16">
          <mxGeometry relative="1" as="geometry">
            <mxPoint x="69" y="509" as="targetPoint" />
          </mxGeometry>
        </mxCell>
        <mxCell id="y2WVTs9EoRohtQ9s65yp-16" value="okta" style="shape=image;html=1;verticalAlign=top;verticalLabelPosition=bottom;labelBackgroundColor=#ffffff;imageAspect=0;aspect=fixed;image=https://cdn1.iconfinder.com/data/icons/unicons-line-vol-5/24/okta-128.png" vertex="1" parent="1">
          <mxGeometry x="30" y="574" width="78" height="78" as="geometry" />
        </mxCell>
        <mxCell id="y2WVTs9EoRohtQ9s65yp-17" value="Devl" style="image;aspect=fixed;html=1;points=[];align=center;fontSize=12;image=img/lib/azure2/app_services/App_Services.svg;opacity=30;" vertex="1" parent="1">
          <mxGeometry x="433" y="492" width="50" height="50" as="geometry" />
        </mxCell>
        <mxCell id="y2WVTs9EoRohtQ9s65yp-18" value="Qual" style="image;aspect=fixed;html=1;points=[];align=center;fontSize=12;image=img/lib/azure2/app_services/App_Services.svg;opacity=30;" vertex="1" parent="1">
          <mxGeometry x="363" y="492" width="50" height="50" as="geometry" />
        </mxCell>
        <mxCell id="y2WVTs9EoRohtQ9s65yp-19" value="Prod" style="image;aspect=fixed;html=1;points=[];align=center;fontSize=12;image=img/lib/azure2/app_services/App_Services.svg;opacity=30;" vertex="1" parent="1">
          <mxGeometry x="293" y="492" width="50" height="50" as="geometry" />
        </mxCell>
        <mxCell id="y2WVTs9EoRohtQ9s65yp-20" value="Resource Group" style="image;aspect=fixed;html=1;points=[];align=center;fontSize=12;image=img/lib/azure2/general/Resource_Groups.svg;" vertex="1" parent="1">
          <mxGeometry x="1035" y="709" width="68" height="64" as="geometry" />
        </mxCell>
        <mxCell id="y2WVTs9EoRohtQ9s65yp-21" value="API Management" style="image;aspect=fixed;html=1;points=[];align=center;fontSize=12;image=img/lib/azure2/app_services/API_Management_Services.svg;" vertex="1" parent="1">
          <mxGeometry x="560" y="430" width="65" height="60" as="geometry" />
        </mxCell>
        <mxCell id="y2WVTs9EoRohtQ9s65yp-22" style="edgeStyle=orthogonalEdgeStyle;rounded=0;orthogonalLoop=1;jettySize=auto;html=1;dashed=1;" edge="1" parent="1" source="y2WVTs9EoRohtQ9s65yp-23" target="y2WVTs9EoRohtQ9s65yp-26">
          <mxGeometry relative="1" as="geometry" />
        </mxCell>
        <mxCell id="y2WVTs9EoRohtQ9s65yp-23" value="load balancer" style="verticalLabelPosition=bottom;html=1;verticalAlign=top;align=center;strokeColor=none;fillColor=#00BEF2;shape=mxgraph.azure.azure_load_balancer;" vertex="1" parent="1">
          <mxGeometry x="670" y="442.5" width="50" height="35" as="geometry" />
        </mxCell>
        <mxCell id="y2WVTs9EoRohtQ9s65yp-24" value="Azure VM" style="verticalLabelPosition=bottom;html=1;verticalAlign=top;align=center;strokeColor=none;fillColor=#00BEF2;shape=mxgraph.azure.virtual_machine;" vertex="1" parent="1">
          <mxGeometry x="840" y="320" width="50" height="40" as="geometry" />
        </mxCell>
        <mxCell id="y2WVTs9EoRohtQ9s65yp-25" style="rounded=0;orthogonalLoop=1;jettySize=auto;html=1;dashed=1;startArrow=classic;startFill=1;strokeColor=#0066CC;entryX=0;entryY=0.5;entryDx=0;entryDy=0;entryPerimeter=0;" edge="1" parent="1" source="y2WVTs9EoRohtQ9s65yp-26" target="y2WVTs9EoRohtQ9s65yp-32">
          <mxGeometry relative="1" as="geometry">
            <mxPoint x="1046" y="278" as="targetPoint" />
          </mxGeometry>
        </mxCell>
        <mxCell id="y2WVTs9EoRohtQ9s65yp-26" value="Azure Functions" style="image;aspect=fixed;html=1;points=[];align=center;fontSize=12;image=img/lib/azure2/compute/Function_Apps.svg;" vertex="1" parent="1">
          <mxGeometry x="831" y="430" width="68" height="60" as="geometry" />
        </mxCell>
        <mxCell id="y2WVTs9EoRohtQ9s65yp-27" style="rounded=0;orthogonalLoop=1;jettySize=auto;html=1;dashed=1;startArrow=classic;startFill=1;strokeColor=#0066CC;entryX=0;entryY=0.9;entryDx=0;entryDy=0;entryPerimeter=0;exitX=1;exitY=0.483;exitDx=0;exitDy=0;exitPerimeter=0;" edge="1" parent="1" source="y2WVTs9EoRohtQ9s65yp-28" target="y2WVTs9EoRohtQ9s65yp-32">
          <mxGeometry relative="1" as="geometry">
            <mxPoint x="1036" y="288" as="targetPoint" />
            <mxPoint x="985" y="539.8181818181818" as="sourcePoint" />
          </mxGeometry>
        </mxCell>
        <mxCell id="y2WVTs9EoRohtQ9s65yp-28" value="Containers" style="image;aspect=fixed;html=1;points=[];align=center;fontSize=12;image=img/lib/azure2/containers/Kubernetes_Services.svg;" vertex="1" parent="1">
          <mxGeometry x="831" y="551" width="68" height="60" as="geometry" />
        </mxCell>
        <mxCell id="y2WVTs9EoRohtQ9s65yp-29" style="edgeStyle=orthogonalEdgeStyle;rounded=0;orthogonalLoop=1;jettySize=auto;html=1;entryX=0.05;entryY=0.5;entryDx=0;entryDy=0;entryPerimeter=0;dashed=1;" edge="1" parent="1" source="y2WVTs9EoRohtQ9s65yp-21" target="y2WVTs9EoRohtQ9s65yp-23">
          <mxGeometry relative="1" as="geometry" />
        </mxCell>
        <mxCell id="y2WVTs9EoRohtQ9s65yp-30" style="edgeStyle=orthogonalEdgeStyle;rounded=0;orthogonalLoop=1;jettySize=auto;html=1;entryX=0;entryY=0.5;entryDx=0;entryDy=0;entryPerimeter=0;dashed=1;" edge="1" parent="1" source="y2WVTs9EoRohtQ9s65yp-23" target="y2WVTs9EoRohtQ9s65yp-24">
          <mxGeometry relative="1" as="geometry">
            <Array as="points">
              <mxPoint x="695" y="340" />
            </Array>
          </mxGeometry>
        </mxCell>
        <mxCell id="y2WVTs9EoRohtQ9s65yp-31" style="edgeStyle=orthogonalEdgeStyle;rounded=0;orthogonalLoop=1;jettySize=auto;html=1;entryX=0;entryY=0.617;entryDx=0;entryDy=0;entryPerimeter=0;dashed=1;" edge="1" parent="1">
          <mxGeometry relative="1" as="geometry">
            <mxPoint x="695" y="500" as="sourcePoint" />
            <Array as="points">
              <mxPoint x="695" y="597" />
            </Array>
            <mxPoint x="831" y="597.02" as="targetPoint" />
          </mxGeometry>
        </mxCell>
        <mxCell id="y2WVTs9EoRohtQ9s65yp-32" value="" style="verticalLabelPosition=bottom;html=1;verticalAlign=top;align=center;strokeColor=none;fillColor=#00BEF2;shape=mxgraph.azure.database;" vertex="1" parent="1">
          <mxGeometry x="1013" y="435" width="37.5" height="50" as="geometry" />
        </mxCell>
        <mxCell id="y2WVTs9EoRohtQ9s65yp-33" style="rounded=0;orthogonalLoop=1;jettySize=auto;html=1;entryX=0;entryY=0.1;entryDx=0;entryDy=0;entryPerimeter=0;dashed=1;startArrow=classic;startFill=1;strokeColor=#0066CC;" edge="1" parent="1" source="y2WVTs9EoRohtQ9s65yp-24" target="y2WVTs9EoRohtQ9s65yp-32">
          <mxGeometry relative="1" as="geometry" />
        </mxCell>
        <mxCell id="y2WVTs9EoRohtQ9s65yp-34" value="Log Analytics" style="image;aspect=fixed;html=1;points=[];align=center;fontSize=12;image=img/lib/azure2/analytics/Log_Analytics_Workspaces.svg;" vertex="1" parent="1">
          <mxGeometry x="753" y="685" width="40" height="40" as="geometry" />
        </mxCell>
        <mxCell id="y2WVTs9EoRohtQ9s65yp-35" style="edgeStyle=orthogonalEdgeStyle;rounded=0;orthogonalLoop=1;jettySize=auto;html=1;entryX=0.015;entryY=0.433;entryDx=0;entryDy=0;entryPerimeter=0;strokeWidth=3;startArrow=classic;startFill=1;exitX=1.019;exitY=0.452;exitDx=0;exitDy=0;exitPerimeter=0;" edge="1" parent="1" source="y2WVTs9EoRohtQ9s65yp-2" target="y2WVTs9EoRohtQ9s65yp-21">
          <mxGeometry relative="1" as="geometry" />
        </mxCell>
        <mxCell id="y2WVTs9EoRohtQ9s65yp-36" value="Key Vault" style="image;aspect=fixed;html=1;points=[];align=center;fontSize=12;image=img/lib/azure2/security/Key_Vaults.svg;" vertex="1" parent="1">
          <mxGeometry x="992" y="306" width="43" height="43" as="geometry" />
        </mxCell>
        <mxCell id="y2WVTs9EoRohtQ9s65yp-37" style="edgeStyle=orthogonalEdgeStyle;rounded=0;orthogonalLoop=1;jettySize=auto;html=1;entryX=0.426;entryY=1;entryDx=0;entryDy=0;entryPerimeter=0;exitX=0.5;exitY=0;exitDx=0;exitDy=0;exitPerimeter=0;" edge="1" parent="1" source="y2WVTs9EoRohtQ9s65yp-38" target="y2WVTs9EoRohtQ9s65yp-2">
          <mxGeometry relative="1" as="geometry">
            <mxPoint x="380.0160000000001" y="629" as="sourcePoint" />
          </mxGeometry>
        </mxCell>
        <mxCell id="y2WVTs9EoRohtQ9s65yp-38" value="" style="verticalLabelPosition=bottom;html=1;verticalAlign=top;align=center;strokeColor=none;fillColor=#00BEF2;shape=mxgraph.azure.github_code;pointerEvents=1;" vertex="1" parent="1">
          <mxGeometry x="355" y="631" width="50" height="50" as="geometry" />
        </mxCell>
      </root>
    </mxGraphModel>
  </diagram>
</mxfile>
